
<svg width="102px" height="155px" viewBox="0 0 102 155" version="1.1" xmlns="http://www.w3.org/2000/svg" xmlns:xlink="http://www.w3.org/1999/xlink">
    <g id="a" stroke="none" stroke-width="1" fill="none" fill-rule="evenodd">
        <g id="face" transform="translate(1.000000, 21.000000)">
            <path d="M50,112.015599 C77.6142375,112.015599 100,77.3263592 100,49.8145455 C100,22.3027317 77.6142375,0 50,0 C22.3857625,0 0,22.3027317 0,49.8145455 C0,77.3263592 22.3857625,112.015599 50,112.015599 Z" id="Oval" stroke="#42B983" stroke-width="2" fill="#FFFFFF"></path>
            <g id="glasses" transform="translate(15.291262, 37.723636)" fill="#2E3834" fill-rule="nonzero">
                <path d="M18.9116505,0.135901818 C14.0762136,0.135901818 9.81407767,2.61937455 7.33592233,6.37118364 L1.45631068,6.37118364 C0.652184466,6.37118364 0,7.02094909 0,7.82209273 C0,8.62323636 0.652184466,9.27300182 1.45631068,9.27300182 L5.87694175,9.27300182 C5.35048544,10.7299564 5.06165049,12.2991145 5.06165049,13.9342891 C5.06165049,21.5428564 11.2747573,27.7329182 18.9116505,27.7329182 C26.5485437,27.7329182 32.7616505,21.5428564 32.7616505,13.9342891 C32.7616505,6.32572182 26.5485437,0.135901818 18.9116505,0.135901818 Z M18.9116505,24.8311 C12.8808252,24.8311 7.97427184,19.9427455 7.97427184,13.9342891 C7.97427184,7.92583273 12.8808252,3.03747818 18.9116505,3.03747818 C24.9424757,3.03747818 29.8490291,7.92583273 29.8490291,13.9342891 C29.8490291,19.9427455 24.9424757,24.8311 18.9116505,24.8311 Z" id="Shape"></path>
                <path d="M69.7199029,6.37118364 L63.1543689,6.37118364 C62.4514563,5.30379818 61.6004854,4.32854545 60.615534,3.48218182 C58.1046117,1.32419636 54.8934466,0.135901818 51.5735437,0.135901818 C46.6143204,0.135901818 42.257767,2.74778 39.8109223,6.66160727 C38.7487864,5.30863455 37.0966019,4.43639636 35.2427184,4.43639636 C34.2713592,4.43639636 33.3097087,4.68087455 32.4618932,5.14298909 C31.7563107,5.52772182 31.4973301,6.40939091 31.8834951,7.11259818 C32.2694175,7.81532182 33.1543689,8.0731 33.8601942,7.68885091 C34.2866505,7.45622182 34.751699,7.33845636 35.2427184,7.33845636 C36.8339806,7.33845636 38.1286408,8.62831455 38.1286408,10.2136745 C38.1286408,10.3123364 38.138835,10.4088218 38.1575243,10.5021636 C37.8742718,11.6000182 37.7235437,12.7501055 37.7235437,13.9347727 C37.7235437,21.54334 43.9366505,27.7334018 51.5735437,27.7334018 C57.3072816,27.7334018 62.5169903,24.1428855 64.5381068,18.7991873 C64.8216019,18.0493091 64.4415049,17.2123764 63.6885922,16.9301745 C62.936165,16.6472473 62.0958738,17.0261764 61.8123786,17.7762964 C60.2165049,21.9962655 56.1019417,24.8318255 51.5735437,24.8318255 C45.5427184,24.8318255 40.636165,19.9434709 40.636165,13.9350145 C40.636165,7.92655818 45.5427184,3.03820364 51.5735437,3.03820364 C56.9929612,3.03820364 61.5366505,6.90221636 62.3774272,12.2260855 C62.5024272,13.0175564 63.2473301,13.55802 64.0424757,13.4337255 C64.8368932,13.3091891 65.3796117,12.5665655 65.2548544,11.7750945 C65.1196602,10.9185745 64.9007282,10.0818836 64.6092233,9.27348545 L69.7201456,9.27348545 C70.5242718,9.27348545 71.1764563,8.62372 71.1764563,7.82257636 C71.1764563,7.02143273 70.5242718,6.37118364 69.7199029,6.37118364 Z" id="Shape"></path>
            </g>
            <path d="M50.4149059,116.949553 C45.9253629,120.10595 56.1354092,124.126049 58.7215055,126.097492 C62.8917098,129.276539 44.5447706,129.091534 41.664195,131.422874 C40.7416936,132.169483 43.5845787,132.695192 50.1928502,133" id="Path-2" stroke="#42B983" stroke-width="2" stroke-linecap="round" stroke-linejoin="round"></path>
            <path d="M54.368932,116.172736 C52.0559236,114.171518 50.5996129,113.170909 50,113.170909 C49.3551732,113.170909 47.8988626,114.171518 45.631068,116.172736 L54.368932,116.172736 Z" id="Line-4-Copy" stroke="#42B983" stroke-width="2" stroke-linecap="round" stroke-linejoin="round"></path>
            <path d="M44.6601942,73.3918182 L55.5825243,73.3918182" id="Line" stroke="#42B983" stroke-width="2" stroke-linecap="round" stroke-linejoin="round"></path>
        </g>
        <g id="hat" transform="translate(60.765383, 11.359803) rotate(10.000000) translate(-60.765383, -11.359803) translate(42.765383, -6.140197)" stroke="#2E3834" stroke-width="2">
            <g id="hat-copy" transform="translate(17.979067, 12.574742) rotate(18.000000) translate(-17.979067, -12.574742) translate(1.753920, 4.825419)" stroke-linecap="round" stroke-linejoin="round">
                <path d="M16.4818198,6.92699144 C16.4186241,6.90990987 16.35518,6.89272724 16.2914876,6.87544357 C10.8447136,8.3534894 7.21406587,9.09251231 5.39954447,9.09251231 C2.6588995,9.09251231 0.437167783,8.08609084 0.437167783,6.84460703 C0.437167783,5.60312322 2.6588995,4.59670174 5.39954447,4.59670174 C7.21406587,4.59670174 10.8447136,5.33572465 16.2914876,6.81377048 C16.35518,6.79648681 16.4186241,6.77930418 16.4818198,6.76222262 L16.4818198,5.88121905 L16.4818198,6.76221589 C21.822924,5.31854203 25.3901277,4.59670174 27.1834308,4.59670174 C29.9240757,4.59670174 32.1458074,5.60312322 32.1458074,6.84460703 C32.1458074,8.08609084 29.9240757,9.09251231 27.1834308,9.09251231 C25.3901277,9.09251231 21.822924,8.37067202 16.4818198,6.92699144 L16.4818198,10.7927913 L16.4818198,6.92699304 Z" id="Oval-2" transform="translate(16.291488, 7.744865) scale(-1, 1) rotate(17.000000) translate(-16.291488, -7.744865) "></path>
            </g>
            <path d="M18.162478,34.6571475 C27.257124,34.6571475 34.6297914,31.537322 34.6297914,30.3918798 C34.6297914,22.8352989 27.257124,16.7094797 18.162478,16.7094797 C9.06783194,16.7094797 1.69516461,22.8352989 1.69516461,30.3918798 C1.69516461,31.5475351 9.06783194,34.6571475 18.162478,34.6571475 Z" id="Oval-3" fill="#FFFFFF"></path>
            <path d="M3.20870444,27.9702161 C8.57365755,30.0618835 13.5986098,31.1077172 18.2835612,31.1077172 C22.9685125,31.1077172 27.9934648,30.0618835 33.3584179,27.9702161" id="Line-5" stroke-linecap="round" stroke-linejoin="round"></path>
        </g>
    </g>
</svg>